<svg 
 xmlns="http://www.w3.org/2000/svg"
 xmlns:xlink="http://www.w3.org/1999/xlink"
 width="343px" height="56px">
<path fill-rule="evenodd"  fill="rgb(117, 93, 213)"
 d="M343.000,37.028 L343.000,55.000 L307.472,55.000 C307.366,55.180 307.257,55.279 307.145,55.279 C307.034,55.279 306.924,55.180 306.818,55.000 L-0.000,55.000 L-0.000,37.052 C-0.000,37.035 -0.000,37.019 -0.000,37.002 C-0.000,31.389 0.845,26.838 1.887,26.838 C2.929,26.838 3.774,31.387 3.774,37.000 L3.774,37.000 C3.774,31.387 4.619,26.838 5.661,26.838 C6.703,26.838 7.548,31.387 7.548,37.000 L7.548,37.000 C7.549,33.845 8.393,31.288 9.435,31.288 C10.477,31.288 11.322,33.845 11.322,37.000 L11.322,37.000 C11.323,24.269 12.167,13.950 13.210,13.950 C14.196,13.950 15.005,23.206 15.088,34.997 C15.371,33.079 16.045,31.727 16.833,31.727 C17.594,31.727 18.246,32.994 18.544,34.810 C18.815,32.470 19.498,30.800 20.304,30.800 C21.346,30.800 22.191,33.575 22.191,37.000 L22.191,37.000 C22.192,34.744 23.036,32.916 24.078,32.916 C25.120,32.916 25.965,34.744 25.965,37.000 L25.965,37.000 C25.966,33.575 26.810,30.800 27.852,30.800 C28.894,30.800 29.739,33.575 29.740,37.000 L29.740,37.000 C29.740,31.897 30.585,27.761 31.627,27.761 C32.669,27.761 33.514,31.897 33.514,37.000 L33.514,37.000 C33.514,23.805 34.359,13.108 35.401,13.108 C36.443,13.108 37.288,23.805 37.288,37.000 L37.288,37.000 C37.288,26.592 38.133,18.155 39.175,18.155 C40.217,18.155 41.062,26.592 41.062,37.000 L41.062,37.000 C41.063,33.575 41.907,30.800 42.949,30.800 C43.991,30.800 44.836,33.575 44.836,37.000 L44.836,37.000 C44.837,30.249 45.681,24.776 46.724,24.776 C47.766,24.776 48.611,30.249 48.611,37.000 L48.611,37.000 C48.611,32.137 49.456,28.195 50.498,28.195 C51.540,28.195 52.385,32.137 52.385,37.000 L52.385,37.000 C52.385,29.170 53.230,22.822 54.272,22.822 C55.314,22.822 56.159,29.170 56.159,37.000 L56.159,37.000 C56.159,30.818 57.004,25.807 58.046,25.807 C59.088,25.807 59.933,30.818 59.933,37.000 L59.933,37.000 C59.934,33.815 60.779,31.234 61.820,31.234 C62.862,31.234 63.707,33.815 63.707,37.000 L63.708,37.000 C63.708,35.164 64.553,33.676 65.595,33.676 C66.637,33.676 67.481,35.164 67.482,37.000 L67.482,37.000 C67.482,33.575 68.327,30.800 69.369,30.800 C70.411,30.800 71.256,33.575 71.256,37.000 L71.256,37.000 C71.257,35.284 72.101,33.893 73.143,33.893 C74.185,33.893 75.029,35.284 75.030,37.000 L75.030,37.000 C75.030,31.358 75.875,26.784 76.917,26.784 C77.960,26.784 78.804,31.358 78.804,37.000 L78.805,37.000 C78.805,33.575 79.650,30.800 80.692,30.800 C81.734,30.800 82.578,33.575 82.579,37.000 L82.579,37.000 C82.579,32.661 83.424,29.145 84.466,29.145 C85.508,29.145 86.353,32.661 86.353,37.000 L86.353,37.000 C86.353,31.897 87.198,27.761 88.240,27.761 C89.282,27.761 90.127,31.897 90.127,37.000 L90.127,37.000 C90.127,29.559 90.972,23.528 92.014,23.528 C93.056,23.528 93.901,29.559 93.901,37.000 L93.901,37.000 C93.902,31.597 94.746,27.218 95.789,27.218 C96.830,27.218 97.675,31.597 97.676,37.000 L97.676,37.000 C97.676,29.319 98.521,23.094 99.563,23.094 C100.605,23.094 101.450,29.319 101.450,37.000 L101.450,37.000 C101.450,33.875 102.295,31.342 103.337,31.342 C104.379,31.342 105.224,33.875 105.224,37.000 L105.224,37.000 C105.224,32.137 106.069,28.195 107.111,28.195 C108.153,28.195 108.998,32.137 108.998,37.000 L108.998,37.000 C108.998,30.488 109.843,25.210 110.885,25.210 C111.927,25.210 112.772,30.488 112.773,37.000 L112.773,37.000 C112.773,19.429 113.618,5.185 114.660,5.185 C115.702,5.185 116.547,19.429 116.547,37.000 L116.547,37.000 C116.547,21.347 117.392,8.658 118.434,8.658 C119.476,8.658 120.321,21.347 120.321,37.000 L120.321,37.000 C120.321,24.494 121.166,14.357 122.208,14.357 C123.250,14.357 124.095,24.494 124.095,37.000 L124.095,37.000 C124.096,30.309 124.940,24.884 125.982,24.884 C127.024,24.884 127.869,30.309 127.870,37.000 L127.870,37.000 C127.870,31.597 128.714,27.218 129.757,27.218 C130.799,27.218 131.643,31.597 131.644,37.000 L131.644,37.000 C131.644,30.488 132.489,25.210 133.531,25.210 C134.573,25.210 135.418,30.488 135.418,37.000 L135.418,37.000 C135.418,22.786 136.263,11.263 137.305,11.263 C138.347,11.263 139.192,22.786 139.192,37.000 L139.192,37.000 C139.192,20.148 140.037,6.488 141.079,6.488 C142.121,6.488 142.966,20.148 142.966,37.000 L142.966,37.000 C142.967,24.974 143.811,15.225 144.853,15.225 C145.896,15.225 146.740,24.974 146.741,37.000 L146.741,37.000 C146.741,29.110 147.586,22.714 148.628,22.714 C149.670,22.714 150.515,29.110 150.515,37.000 L150.515,37.000 C150.515,31.777 151.360,27.544 152.402,27.544 C153.444,27.544 154.289,31.777 154.289,37.000 L154.289,37.000 C154.289,33.575 155.134,30.800 156.176,30.800 C157.218,30.800 158.063,33.575 158.063,37.000 L158.063,37.000 C158.064,32.137 158.908,28.195 159.950,28.195 C160.992,28.195 161.837,32.137 161.837,37.000 L161.837,37.000 C161.838,29.319 162.683,23.094 163.725,23.094 C164.767,23.094 165.612,29.319 165.612,37.000 L165.612,37.000 C165.612,33.575 166.457,30.800 167.499,30.800 C168.541,30.800 169.386,33.575 169.386,37.000 L169.386,37.000 C169.386,23.026 170.231,11.697 171.273,11.697 C172.315,11.697 173.160,23.026 173.160,37.000 L173.160,37.000 C173.160,24.105 174.005,13.651 175.047,13.651 C176.089,13.651 176.934,24.105 176.934,37.000 L176.934,37.000 C176.935,27.371 177.779,19.566 178.822,19.566 C179.864,19.566 180.708,27.371 180.709,37.000 L180.709,37.000 C180.709,29.739 181.553,23.853 182.596,23.853 C183.638,23.853 184.483,29.739 184.483,37.000 L184.483,37.000 C184.483,31.777 185.328,27.544 186.370,27.544 C187.412,27.544 188.257,31.777 188.257,37.000 L188.257,37.000 C188.258,33.575 189.102,30.800 190.144,30.800 C191.186,30.800 192.031,33.575 192.031,37.000 L192.031,37.000 C192.032,34.594 192.876,32.645 193.918,32.645 C194.960,32.645 195.805,34.594 195.805,37.000 L195.806,37.000 C195.806,33.845 196.651,31.288 197.693,31.288 C198.735,31.288 199.579,33.845 199.580,37.000 L199.580,37.000 C199.580,32.976 200.425,29.714 201.467,29.714 C202.509,29.714 203.354,32.976 203.354,37.000 L203.354,37.000 C203.354,33.575 204.199,30.800 205.241,30.800 C206.283,30.800 207.128,33.575 207.128,37.000 L207.128,37.000 C207.128,32.317 207.973,28.520 209.015,28.520 C210.057,28.520 210.902,32.317 210.902,37.000 L210.902,37.000 C210.902,27.192 211.747,19.241 212.790,19.241 C213.832,19.241 214.676,27.192 214.677,37.000 L214.677,37.000 C214.677,24.944 215.522,15.171 216.564,15.171 C217.606,15.171 218.451,24.944 218.451,37.000 L218.451,37.000 C218.451,22.696 219.296,11.100 220.338,11.100 C221.380,11.100 222.225,22.696 222.225,37.000 L222.225,37.000 C222.225,20.688 223.070,7.465 224.112,7.465 C225.154,7.465 225.999,20.688 225.999,37.000 L225.999,37.000 C225.999,17.264 226.844,1.265 227.886,1.265 C228.929,1.265 229.774,17.264 229.774,37.000 L229.774,37.000 C229.774,18.815 230.618,4.073 231.661,4.073 C232.703,4.073 233.548,18.815 233.548,37.000 L233.548,37.000 C233.548,25.963 234.393,17.016 235.435,17.016 C236.477,17.016 237.322,25.963 237.322,37.000 L237.322,37.000 C237.322,33.575 238.167,30.800 239.209,30.800 C240.251,30.800 241.096,33.575 241.096,37.000 L241.096,37.000 C241.097,34.684 241.942,32.808 242.984,32.808 C244.025,32.808 244.870,34.684 244.870,37.000 L244.871,37.000 C244.871,32.504 245.715,28.860 246.758,28.860 C247.800,28.860 248.644,32.504 248.645,37.000 L248.645,37.000 C248.645,34.594 249.490,32.645 250.532,32.645 C251.574,32.645 252.418,34.594 252.419,37.000 L252.419,37.000 C252.419,29.379 253.264,23.202 254.306,23.202 C255.348,23.202 256.193,29.379 256.193,37.000 L256.193,37.000 C256.193,22.816 257.038,11.318 258.080,11.318 C259.122,11.318 259.967,22.816 259.967,37.000 L259.967,37.000 C259.968,17.421 260.812,1.549 261.854,1.549 C262.897,1.549 263.741,17.421 263.742,37.000 L263.742,37.000 C263.742,33.575 264.587,30.800 265.629,30.800 C266.671,30.800 267.515,33.575 267.516,37.000 L267.516,37.000 C267.516,32.009 268.361,27.964 269.403,27.964 C270.445,27.964 271.290,32.009 271.290,37.000 L271.290,37.000 C271.290,33.575 272.135,30.800 273.177,30.800 C274.219,30.800 275.064,33.575 275.064,37.000 L275.064,37.000 C275.064,29.919 275.909,24.179 276.951,24.179 C277.994,24.179 278.838,29.919 278.839,37.000 L278.839,37.000 C278.839,27.761 279.684,20.272 280.726,20.272 C281.768,20.272 282.613,27.761 282.613,37.000 L282.613,37.000 C282.613,17.421 283.458,1.549 284.500,1.549 C285.542,1.549 286.387,17.421 286.387,37.000 L286.387,37.000 C286.387,17.039 287.232,0.858 288.274,0.858 C289.316,0.858 290.161,17.039 290.161,37.000 L290.161,37.000 C290.161,21.872 291.006,9.608 292.048,9.608 C293.090,9.608 293.935,21.872 293.935,37.000 L293.935,37.000 C293.936,33.575 294.780,30.800 295.823,30.800 C296.864,30.800 297.709,33.575 297.709,37.000 L297.709,37.000 C297.710,20.860 298.555,7.777 299.597,7.777 C300.639,7.777 301.484,20.860 301.484,37.000 L301.484,37.000 C301.484,23.962 302.329,13.393 303.371,13.393 C304.413,13.393 305.258,23.962 305.258,37.000 L305.258,37.000 C305.258,26.907 306.103,18.725 307.145,18.725 C308.187,18.725 309.032,26.907 309.032,37.000 L309.032,37.000 C309.032,29.110 309.877,22.714 310.919,22.714 C311.962,22.714 312.806,29.110 312.806,37.000 L312.806,37.000 C312.807,16.567 313.651,0.003 314.694,0.003 C315.736,0.003 316.581,16.567 316.581,37.000 L316.581,37.000 C316.581,21.624 317.426,9.160 318.468,9.160 C319.510,9.160 320.355,21.624 320.355,37.000 L320.355,37.000 C320.355,24.861 321.200,15.021 322.242,15.021 C323.284,15.021 324.129,24.861 324.129,37.000 L324.129,37.000 C324.129,21.332 324.974,8.631 326.016,8.631 C327.058,8.631 327.903,21.332 327.903,37.000 L327.903,37.000 C327.904,27.469 328.748,19.743 329.791,19.743 C330.833,19.743 331.678,27.469 331.678,37.000 L331.678,37.000 C331.678,30.930 332.523,26.010 333.565,26.010 C334.607,26.010 335.452,30.930 335.452,37.000 L335.452,37.000 C335.452,33.575 336.297,30.800 337.339,30.800 C338.381,30.800 339.226,33.575 339.226,37.000 L339.226,37.000 C339.227,34.145 340.071,31.831 341.113,31.831 C342.155,31.831 343.000,34.146 343.000,37.002 C343.000,37.011 343.000,37.019 343.000,37.028 Z"/>
</svg>